<?xml version="1.0" encoding="utf-8"?>
<svg width="800px" height="800px" viewBox="0 0 14 14" xmlns="http://www.w3.org/2000/svg">
    <defs>
        <linearGradient id="gradient" x1="0%" y1="100%" x2="0%" y2="0%">
            <stop offset="0%" stop-color="#000000"/>
            <stop offset="100%" stop-color="#D0D0D0"/>
        </linearGradient>
    </defs>

    <rect width="100%" height="100%" fill="url(#gradient)"/>

    <path fill="#ffa000" d="M3.949495 12.99999992l-2.94949494-2.94949495 9.05050485-9.05050485 2.94949495 2.94949495z"/>
    <path fill="#9e6400" d="M6.65799483 7.05237659L5.32466152 5.71904328l.4040404-.4040404 1.33333332 1.3333333zm.5744003-1.71182792l-.74747475-.74747475.4040404-.4040404.74747475.74747474zm1.71182812-.57411476L7.61088995 3.4331006l.4040404-.4040404 1.3333333 1.3333333zm-.18533257-2.47041863l.4040404-.4040404.74747475.74747474-.4040404.4040404zM2.6596521 9.91243398l-.74747475-.74747475.4040404-.4040404.74747476.74747475zm1.71182845-.57411443L3.03814723 8.00498624l.4040404-.4040404 1.33333332 1.3333333zm.57468595-1.71182841l-.74747474-.74747474.4040404-.4040404.74747475.74747474z"/>
</svg>